<svg width="24" height="24" viewBox="0 0 24 24" fill="none" xmlns="http://www.w3.org/2000/svg">
<path d="M11.5516 10.4085C11.735 10.0368 12.2649 10.0368 12.4483 10.4085L13.9409 13.4327C14.0137 13.5803 14.1545 13.6826 14.3174 13.7062L17.6548 14.1912C18.0649 14.2508 18.2287 14.7548 17.9319 15.044L15.5169 17.3981C15.3991 17.5129 15.3453 17.6784 15.3731 17.8406L15.9432 21.1646C16.0133 21.573 15.5845 21.8845 15.2177 21.6917L12.2326 20.1223C12.087 20.0457 11.913 20.0457 11.7673 20.1223L8.78224 21.6917C8.41544 21.8845 7.98669 21.573 8.05674 21.1646L8.62684 17.8406C8.65469 17.6784 8.60089 17.5129 8.48304 17.3981L6.06809 15.044C5.77129 14.7548 5.93509 14.2508 6.34519 14.1912L9.68259 13.7062C9.84544 13.6826 9.98624 13.5803 10.0591 13.4327L11.5516 10.4085Z" fill="#2F88FF" stroke="black" stroke-width="2" stroke-linecap="round" stroke-linejoin="round"/>
<path d="M18 2H6V7L12 9.5L18 7V2Z" fill="#2F88FF" stroke="black" stroke-width="2" stroke-linecap="round" stroke-linejoin="round"/>
</svg>
