<svg width="20" height="20" viewBox="0 0 20 20" fill="none" xmlns="http://www.w3.org/2000/svg">
<path fill-rule="evenodd" clip-rule="evenodd" d="M8.43749 13.75C9.84645 13.75 11.1977 13.1903 12.194 12.194C13.1903 11.1977 13.75 9.84647 13.75 8.43751C13.75 7.02855 13.1903 5.67729 12.194 4.681C11.1977 3.68472 9.84645 3.12501 8.43749 3.12501C7.02853 3.12501 5.67727 3.68472 4.68099 4.681C3.6847 5.67729 3.12499 7.02855 3.12499 8.43751C3.12499 9.84647 3.6847 11.1977 4.68099 12.194C5.67727 13.1903 7.02853 13.75 8.43749 13.75ZM8.43749 15.625C10.0203 15.6271 11.5591 15.1049 12.8137 14.14L16.2125 17.5375C16.2983 17.6296 16.4018 17.7035 16.5168 17.7547C16.6318 17.806 16.756 17.8335 16.8818 17.8357C17.0077 17.838 17.1328 17.8148 17.2495 17.7677C17.3662 17.7205 17.4723 17.6503 17.5613 17.5613C17.6503 17.4723 17.7205 17.3662 17.7676 17.2495C17.8148 17.1328 17.838 17.0077 17.8357 16.8819C17.8335 16.756 17.806 16.6318 17.7547 16.5168C17.7035 16.4018 17.6296 16.2983 17.5375 16.2125L14.14 12.8138C15.1279 11.5267 15.6512 9.94318 15.6249 8.32087C15.5986 6.69857 15.0241 5.1329 13.995 3.87854C12.9658 2.62418 11.5425 1.75494 9.95664 1.4122C8.37074 1.06946 6.71552 1.27339 5.26024 1.99083C3.80496 2.70826 2.63523 3.89698 1.94133 5.36363C1.24743 6.83028 1.07018 8.48857 1.43842 10.0687C1.80665 11.6489 2.69871 13.058 3.96948 14.0668C5.24026 15.0756 6.81497 15.6248 8.43749 15.625ZM9.37499 5.93751C9.37499 5.68887 9.27622 5.45041 9.1004 5.2746C8.92459 5.09878 8.68613 5.00001 8.43749 5.00001C8.18885 5.00001 7.95039 5.09878 7.77458 5.2746C7.59876 5.45041 7.49999 5.68887 7.49999 5.93751V7.50001H5.93749C5.68885 7.50001 5.45039 7.59878 5.27458 7.7746C5.09876 7.95041 4.99999 8.18887 4.99999 8.43751C4.99999 8.68615 5.09876 8.92461 5.27458 9.10042C5.45039 9.27624 5.68885 9.37501 5.93749 9.37501H7.49999V10.9375C7.49999 11.1861 7.59876 11.4246 7.77458 11.6004C7.95039 11.7762 8.18885 11.875 8.43749 11.875C8.68613 11.875 8.92459 11.7762 9.1004 11.6004C9.27622 11.4246 9.37499 11.1861 9.37499 10.9375V9.37501H10.9375C11.1861 9.37501 11.4246 9.27624 11.6004 9.10042C11.7762 8.92461 11.875 8.68615 11.875 8.43751C11.875 8.18887 11.7762 7.95041 11.6004 7.7746C11.4246 7.59878 11.1861 7.50001 10.9375 7.50001H9.37499V5.93751Z" fill="black"/>
</svg>
