<svg width="58" height="58" viewBox="0 0 58 58" fill="none" xmlns="http://www.w3.org/2000/svg">
<rect width="58" height="58" rx="10" fill="#B7B7B7" fill-opacity="0.2"/>
<path d="M41.4463 16.5727C41.2708 16.3969 41.0625 16.2575 40.8331 16.1623C40.6037 16.0671 40.3578 16.0182 40.1094 16.0182C39.8611 16.0182 39.6152 16.0671 39.3858 16.1623C39.1564 16.2575 38.948 16.3969 38.7726 16.5727L29.5 25.8263L20.2274 16.5537C20.0519 16.3782 19.8435 16.2389 19.6141 16.1439C19.3847 16.0489 19.1389 16 18.8906 16C18.6423 16 18.3965 16.0489 18.1671 16.1439C17.9377 16.2389 17.7293 16.3782 17.5537 16.5537C17.3782 16.7293 17.2389 16.9377 17.1439 17.1671C17.0489 17.3965 17 17.6423 17 17.8906C17 18.1389 17.0489 18.3847 17.1439 18.6141C17.2389 18.8435 17.3782 19.0519 17.5537 19.2274L26.8263 28.5L17.5537 37.7726C17.3782 37.9481 17.2389 38.1565 17.1439 38.3859C17.0489 38.6153 17 38.8611 17 39.1094C17 39.3577 17.0489 39.6035 17.1439 39.8329C17.2389 40.0623 17.3782 40.2707 17.5537 40.4463C17.7293 40.6218 17.9377 40.7611 18.1671 40.8561C18.3965 40.9511 18.6423 41 18.8906 41C19.1389 41 19.3847 40.9511 19.6141 40.8561C19.8435 40.7611 20.0519 40.6218 20.2274 40.4463L29.5 31.1737L38.7726 40.4463C38.9481 40.6218 39.1565 40.7611 39.3859 40.8561C39.6153 40.9511 39.8611 41 40.1094 41C40.3577 41 40.6035 40.9511 40.8329 40.8561C41.0623 40.7611 41.2707 40.6218 41.4463 40.4463C41.6218 40.2707 41.7611 40.0623 41.8561 39.8329C41.9511 39.6035 42 39.3577 42 39.1094C42 38.8611 41.9511 38.6153 41.8561 38.3859C41.7611 38.1565 41.6218 37.9481 41.4463 37.7726L32.1737 28.5L41.4463 19.2274C42.1668 18.5069 42.1668 17.2933 41.4463 16.5727Z" fill="black"/>
</svg>
