<svg width="266" height="264" viewBox="0 0 266 264" fill="none" xmlns="http://www.w3.org/2000/svg">
<rect x="175" width="56" height="185" fill="#FFD000"/>
<rect x="99" y="57" width="83" height="128" fill="#FF69ED"/>
<rect x="211" y="55" width="55" height="130" fill="#007BFF"/>
<rect x="171" y="74" width="44" height="111" fill="#00CCFF"/>
<path d="M78.5 61L146.483 184.75H10.517L78.5 61Z" fill="#F3A25B"/>
<path d="M81 185C81 174.626 82.7718 164.353 86.2143 154.768C89.6567 145.183 94.7024 136.474 101.063 129.139C107.424 121.803 114.975 115.984 123.286 112.014C131.597 108.043 140.504 106 149.5 106C158.496 106 167.403 108.043 175.714 112.014C184.025 115.984 191.576 121.803 197.937 129.139C204.298 136.474 209.343 145.183 212.786 154.768C216.228 164.353 218 174.626 218 185L149.5 185L81 185Z" fill="#A200FF"/>
<path d="M218 33.5C218 29.1239 216.262 24.9271 213.167 21.8327C210.073 18.7384 205.876 17 201.5 17C197.124 17 192.927 18.7384 189.833 21.8327C186.738 24.9271 185 29.1239 185 33.5L201.5 33.5H218Z" fill="white"/>
<path d="M204 33.5C204 32.5151 203.806 31.5398 203.429 30.6299C203.052 29.7199 202.5 28.8931 201.803 28.1967C201.107 27.5003 200.28 26.9478 199.37 26.5709C198.46 26.194 197.485 26 196.5 26C195.515 26 194.54 26.194 193.63 26.5709C192.72 26.9478 191.893 27.5003 191.197 28.1967C190.5 28.8931 189.948 29.7199 189.571 30.6299C189.194 31.5398 189 32.5151 189 33.5L196.5 33.5H204Z" fill="black"/>
<circle cx="129.5" cy="136.5" r="16.5" fill="white"/>
<circle cx="170.5" cy="136.5" r="16.5" fill="white"/>
<circle cx="133.5" cy="130.5" r="7.5" fill="black"/>
<circle cx="173.5" cy="129.5" r="7.5" fill="black"/>
<path d="M262 73.5C262 77.8761 260.262 82.0729 257.167 85.1673C254.073 88.2616 249.876 90 245.5 90C241.124 90 236.927 88.2616 233.833 85.1673C230.738 82.0729 229 77.8761 229 73.5L245.5 73.5H262Z" fill="white"/>
<path d="M253 73.5C253 74.4849 252.806 75.4602 252.429 76.3701C252.052 77.2801 251.5 78.1069 250.803 78.8033C250.107 79.4997 249.28 80.0522 248.37 80.4291C247.46 80.806 246.485 81 245.5 81C244.515 81 243.54 80.806 242.63 80.4291C241.72 80.0522 240.893 79.4997 240.197 78.8033C239.5 78.1069 238.948 77.2801 238.571 76.3701C238.194 75.4602 238 74.4849 238 73.5L245.5 73.5H253Z" fill="black"/>
<path d="M140 136.953C140 136.953 145.543 131.258 149.83 131.009C154.596 130.732 161 137 161 137" stroke="white"/>
<circle cx="64.4991" cy="120.696" r="9.69633" fill="white"/>
<circle cx="90.3037" cy="122.304" r="9.69633" fill="white"/>
<circle cx="66.7957" cy="122.063" r="4.67578" fill="black"/>
<circle cx="88.9679" cy="118.063" r="4.67578" fill="black"/>
<path d="M73 121.969C73 121.969 75.6395 118.172 77.6809 118.006C79.9506 117.821 83 122 83 122" stroke="white"/>
<line x1="181.393" y1="81.2458" x2="187.246" y2="89.6073" stroke="black" stroke-width="2" stroke-linecap="round"/>
<line x1="1" y1="-1" x2="11.2066" y2="-1" transform="matrix(-0.573462 0.819232 0.819232 0.573462 206 81)" stroke="black" stroke-width="2" stroke-linecap="round"/>
<line x1="193" y1="88.2065" x2="193" y2="78" stroke="black" stroke-width="2" stroke-linecap="round"/>
<circle cx="193" cy="94" r="12" fill="white"/>
<circle cx="190" cy="96" r="7" fill="black"/>
<g clip-path="url(#clip0_26_212)">
<rect x="127" y="62" width="36" height="36" rx="18" fill="white"/>
<rect width="47" height="24" transform="translate(119 80)" fill="#FF69ED"/>
<circle cx="154.5" cy="66.5" r="7.5" fill="black"/>
</g>
<defs>
<clipPath id="clip0_26_212">
<rect x="127" y="62" width="36" height="36" rx="18" fill="white"/>
</clipPath>
</defs>
</svg>
