<svg width="569" height="384" viewBox="0 0 569 384" fill="none" xmlns="http://www.w3.org/2000/svg">
<path d="M192.269 217.013L265.273 222.535L181.668 144.572L192.269 217.013Z" fill="#88A8FF"/>
<path d="M295.74 221.89L222.736 216.368L306.341 294.331L295.74 221.89Z" fill="#88A8FF"/>
<path d="M187.89 160.269L182.368 233.273L260.331 149.668L187.89 160.269Z" fill="#88A8FF"/>
<path d="M183.013 263.74L188.535 190.736L110.572 274.341L183.013 263.74Z" fill="#88A8FF"/>
<path d="M157.851 262.597L90.2968 234.374L200.184 202.864L157.851 262.597Z" fill="#5884FF"/>
<path d="M63.4433 219.967L130.997 248.19L21.1102 279.7L63.4433 219.967Z" fill="#5884FF"/>
<path d="M407.443 257.597L474.997 229.374L365.11 197.864L407.443 257.597Z" fill="#88A8FF"/>
<path d="M501.851 214.967L434.297 243.19L544.184 274.7L501.851 214.967Z" fill="#88A8FF"/>
<path d="M376.013 179.269L381.535 252.273L303.572 168.668L376.013 179.269Z" fill="#5884FF"/>
<path d="M380.89 282.74L375.368 209.736L453.331 293.341L380.89 282.74Z" fill="#5884FF"/>
<path d="M374.632 206.161L422.977 151.181L310.398 171.031L374.632 206.161Z" fill="#5884FF"/>
<path d="M440.797 126.461L392.452 181.441L505.031 161.59L440.797 126.461Z" fill="#5884FF"/>
<path d="M409.294 113.977L480.118 132.523L375.686 179.02L409.294 113.977Z" fill="#88A8FF"/>
<path d="M508.716 143.052L437.891 124.506L542.323 78.0093L508.716 143.052Z" fill="#88A8FF"/>
<path d="M255.845 290.54L234.838 220.406L192.015 326.398L255.845 290.54Z" fill="#5884FF"/>
<path d="M223.318 192.194L244.325 262.328L287.148 156.337L223.318 192.194Z" fill="#5884FF"/>
<path d="M288.231 128.027L221.002 99.0385L274.67 199.973L288.231 128.027Z" fill="#88A8FF"/>
<path d="M191.985 89.7292L259.214 118.718L205.546 17.7836L191.985 89.7292Z" fill="#88A8FF"/>
<path d="M391.466 110.705L331.004 151.989L364.427 42.6689L391.466 110.705Z" fill="#5884FF"/>
<path d="M304.297 166.664L364.759 125.38L331.336 234.7L304.297 166.664Z" fill="#5884FF"/>
<path d="M210.689 135.229L137.556 138.645L230.039 205.838L210.689 135.229Z" fill="#5884FF"/>
<path d="M107.395 142.998L180.528 139.582L88.0448 72.389L107.395 142.998Z" fill="#5884FF"/>
<path d="M367.231 245.729L300.002 274.718L353.67 173.784L367.231 245.729Z" fill="#88A8FF"/>
<path d="M270.985 284.027L338.214 255.038L284.546 355.973L270.985 284.027Z" fill="#88A8FF"/>
<path d="M293 323L350.158 368.75H235.842L293 323Z" fill="#5884FF"/>
<path d="M241 337L298.158 368.5H183.842L241 337Z" fill="#5884FF"/>
<path d="M330 344L387.158 368H272.842L330 344Z" fill="#88A8FF"/>
</svg>
