<svg width="30" height="30" viewBox="0 0 30 30" fill="none" xmlns="http://www.w3.org/2000/svg">
<path fill-rule="evenodd" clip-rule="evenodd" d="M19.6339 14.1165C19.8683 14.3509 19.9999 14.6688 19.9999 15.0002C19.9999 15.3317 19.8683 15.6496 19.6339 15.884L12.5627 22.9552C12.4474 23.0746 12.3094 23.1698 12.1569 23.2354C12.0044 23.3009 11.8404 23.3353 11.6744 23.3368C11.5085 23.3382 11.3439 23.3066 11.1902 23.2438C11.0366 23.1809 10.8971 23.0881 10.7797 22.9707C10.6623 22.8534 10.5695 22.7138 10.5067 22.5602C10.4438 22.4065 10.4122 22.2419 10.4136 22.076C10.4151 21.91 10.4495 21.746 10.5151 21.5935C10.5806 21.441 10.6758 21.303 10.7952 21.1877L16.9827 15.0002L10.7952 8.81273C10.5675 8.57697 10.4415 8.26122 10.4443 7.93347C10.4472 7.60573 10.5787 7.29221 10.8104 7.06045C11.0422 6.82869 11.3557 6.69723 11.6834 6.69438C12.0112 6.69154 12.3269 6.81753 12.5627 7.04523L19.6339 14.1165Z" fill="white"/>
</svg>
